<svg width="42" height="42" viewBox="0 0 42 42" fill="none" xmlns="http://www.w3.org/2000/svg">
<circle cx="10" cy="11" r="10" fill="#A0D8A9"/>
<path d="M20 31.5C20 36.7467 15.5228 41 10 41C4.47715 41 0 36.7467 0 31.5C0 26.2533 4.47715 22 10 22C15.5228 22 20 26.2533 20 31.5Z" fill="#6F7D94"/>
<path d="M0 31.5H20V41H0V31.5Z" fill="#6F7D94"/>
<ellipse cx="32" cy="31" rx="10" ry="10" transform="rotate(-180 32 31)" fill="#6F7D94"/>
<path d="M22 10.5C22 5.2533 26.4772 1 32 1C37.5228 1 42 5.2533 42 10.5C42 15.7467 37.5228 20 32 20C26.4772 20 22 15.7467 22 10.5Z" fill="#A0D8A9"/>
<path d="M42 10.5L22 10.5L22 1L42 1L42 10.5Z" fill="#A0D8A9"/>
</svg>
