<svg width="20" height="19" viewBox="0 0 20 19" fill="none" xmlns="http://www.w3.org/2000/svg">
<path d="M7 14H13M15 18H5C3.93913 18 2.92172 17.5786 2.17157 16.8284C1.42143 16.0783 1 15.0609 1 14V7.708C0.999986 7.02022 1.17732 6.34405 1.51487 5.74479C1.85242 5.14554 2.33879 4.64345 2.927 4.287L7.927 1.257C8.55211 0.878196 9.26907 0.677917 10 0.677917C10.7309 0.677917 11.4479 0.878196 12.073 1.257L17.073 4.287C17.6611 4.64336 18.1473 5.14529 18.4849 5.74436C18.8224 6.34342 18.9998 7.01939 19 7.707V14C19 15.0609 18.5786 16.0783 17.8284 16.8284C17.0783 17.5786 16.0609 18 15 18Z" stroke="#9FA8B5" stroke-linecap="round" stroke-linejoin="round"/>
</svg>
