<svg width="12" height="3" viewBox="0 0 12 3" fill="none" xmlns="http://www.w3.org/2000/svg">
<path opacity="0.75" d="M2.03338 2.60938C1.73177 2.60938 1.47325 2.50331 1.25781 2.29119C1.04238 2.07907 0.936316 1.82055 0.939631 1.51562C0.936316 1.21733 1.04238 0.962121 1.25781 0.75C1.47325 0.537879 1.73177 0.431818 2.03338 0.431818C2.32505 0.431818 2.5786 0.537879 2.79403 0.75C3.01278 0.962121 3.12382 1.21733 3.12713 1.51562C3.12382 1.7178 3.07079 1.90175 2.96804 2.06747C2.86861 2.23319 2.73603 2.36577 2.57031 2.4652C2.40791 2.56132 2.22893 2.60938 2.03338 2.60938ZM6.09393 2.60938C5.79232 2.60938 5.5338 2.50331 5.31836 2.29119C5.10292 2.07907 4.99686 1.82055 5.00018 1.51562C4.99686 1.21733 5.10292 0.962121 5.31836 0.75C5.5338 0.537879 5.79232 0.431818 6.09393 0.431818C6.38559 0.431818 6.63915 0.537879 6.85458 0.75C7.07333 0.962121 7.18436 1.21733 7.18768 1.51562C7.18436 1.7178 7.13133 1.90175 7.02859 2.06747C6.92915 2.23319 6.79658 2.36577 6.63086 2.4652C6.46845 2.56132 6.28948 2.60938 6.09393 2.60938ZM10.1545 2.60938C9.85286 2.60938 9.59434 2.50331 9.37891 2.29119C9.16347 2.07907 9.05741 1.82055 9.06072 1.51562C9.05741 1.21733 9.16347 0.962121 9.37891 0.75C9.59434 0.537879 9.85286 0.431818 10.1545 0.431818C10.4461 0.431818 10.6997 0.537879 10.9151 0.75C11.1339 0.962121 11.2449 1.21733 11.2482 1.51562C11.2449 1.7178 11.1919 1.90175 11.0891 2.06747C10.9897 2.23319 10.8571 2.36577 10.6914 2.4652C10.529 2.56132 10.35 2.60938 10.1545 2.60938Z" fill="#9FA8B5"/>
</svg>
