<svg width="18" height="18" viewBox="0 0 18 18" fill="none" xmlns="http://www.w3.org/2000/svg">
<g clip-path="url(#clip0_51_95)">
<path d="M7.89094 1.96802C8.03152 1.81358 8.20281 1.6902 8.39382 1.60577C8.58484 1.52134 8.79138 1.47774 9.00022 1.47774C9.20907 1.47774 9.41561 1.52134 9.60662 1.60577C9.79764 1.6902 9.96893 1.81358 10.1095 1.96802L10.8745 2.80804C11.0231 2.97111 11.2057 3.09941 11.4095 3.18381C11.6133 3.2682 11.8332 3.30662 12.0536 3.29631L13.1884 3.24381C13.3969 3.23398 13.6052 3.26779 13.7999 3.34307C13.9946 3.41835 14.1715 3.53345 14.3191 3.68099C14.4668 3.82854 14.5821 4.00528 14.6576 4.19992C14.733 4.39457 14.767 4.60282 14.7574 4.81136L14.7042 5.94689C14.6938 6.16723 14.7323 6.38713 14.8167 6.59092C14.9011 6.79472 15.0294 6.97739 15.1924 7.12593L16.0324 7.89095C16.1869 8.03154 16.3103 8.20282 16.3947 8.39384C16.4791 8.58485 16.5227 8.7914 16.5227 9.00024C16.5227 9.20908 16.4791 9.41562 16.3947 9.60664C16.3103 9.79766 16.1869 9.96894 16.0324 10.1095L15.1924 10.8745C15.0294 11.0231 14.9011 11.2058 14.8167 11.4096C14.7323 11.6133 14.6938 11.8332 14.7042 12.0536L14.7567 13.1884C14.7665 13.3969 14.7327 13.6052 14.6574 13.7999C14.5821 13.9946 14.467 14.1715 14.3195 14.3192C14.1719 14.4668 13.9952 14.5821 13.8005 14.6576C13.6059 14.733 13.3976 14.767 13.1891 14.7574L12.0536 14.7042C11.8332 14.6939 11.6133 14.7323 11.4095 14.8167C11.2057 14.9011 11.0231 15.0294 10.8745 15.1924L10.1095 16.0325C9.96893 16.1869 9.79764 16.3103 9.60662 16.3947C9.41561 16.4791 9.20907 16.5227 9.00022 16.5227C8.79138 16.5227 8.58484 16.4791 8.39382 16.3947C8.20281 16.3103 8.03152 16.1869 7.89094 16.0325L7.12592 15.1924C6.97738 15.0294 6.7947 14.9011 6.59091 14.8167C6.38711 14.7323 6.16722 14.6939 5.94688 14.7042L4.81209 14.7567C4.60356 14.7665 4.39528 14.7327 4.20057 14.6574C4.00585 14.5821 3.82899 14.467 3.68131 14.3195C3.53362 14.1719 3.41836 13.9952 3.34289 13.8005C3.26743 13.6059 3.23342 13.3977 3.24304 13.1891L3.29629 12.0536C3.3066 11.8332 3.26819 11.6133 3.18379 11.4096C3.0994 11.2058 2.9711 11.0231 2.80803 10.8745L1.968 10.1095C1.81356 9.96894 1.69018 9.79766 1.60576 9.60664C1.52133 9.41562 1.47772 9.20908 1.47772 9.00024C1.47772 8.7914 1.52133 8.58485 1.60576 8.39384C1.69018 8.20282 1.81356 8.03154 1.968 7.89095L2.80803 7.12593C2.9711 6.97739 3.0994 6.79472 3.18379 6.59092C3.26819 6.38713 3.3066 6.16723 3.29629 5.94689L3.24379 4.81211C3.23397 4.60358 3.26778 4.39529 3.34306 4.20058C3.41834 4.00587 3.53343 3.82901 3.68098 3.68132C3.82852 3.53364 4.00527 3.41837 4.19991 3.34291C4.39455 3.26744 4.6028 3.23343 4.81134 3.24306L5.94688 3.29631C6.16722 3.30662 6.38711 3.2682 6.59091 3.18381C6.7947 3.09941 6.97738 2.97111 7.12592 2.80804L7.89094 1.96802Z" stroke="black" stroke-width="1.5"/>
<path d="M6.75 9L8.25 10.5L11.25 7.5" stroke="black" stroke-width="1.5" stroke-linecap="round" stroke-linejoin="round"/>
</g>
<defs>
<clipPath id="clip0_51_95">
<rect width="18" height="18" fill="white"/>
</clipPath>
</defs>
</svg>
