<svg xmlns="http://www.w3.org/2000/svg" style="display: none;">
    <symbol id="home" viewBox="0 0 20 19">
        <path
            d="M7 14H13M15 18H5C3.93913 18 2.92172 17.5786 2.17157 16.8284C1.42143 16.0783 1 15.0609 1 14V7.708C0.999986 7.02022 1.17732 6.34405 1.51487 5.74479C1.85242 5.14554 2.33879 4.64345 2.927 4.287L7.927 1.257C8.55211 0.878196 9.26907 0.677917 10 0.677917C10.7309 0.677917 11.4479 0.878196 12.073 1.257L17.073 4.287C17.6611 4.64336 18.1473 5.14529 18.4849 5.74436C18.8224 6.34342 18.9998 7.01939 19 7.707V14C19 15.0609 18.5786 16.0783 17.8284 16.8284C17.0783 17.5786 16.0609 18 15 18Z"
            stroke="#9FA8B5" stroke-linecap="round" stroke-linejoin="round" />

    </symbol>
    <symbol id="notification" viewBox="0 0 21 22">
        <path
            d="M16.134 10C16.715 15.375 19 17 19 17H1C1 17 4 14.867 4 7.4C4 5.703 4.632 4.075 5.757 2.875C6.883 1.675 8.41 1 10 1C10.337 1 10.672 1.03 11 1.09M11.73 20C11.5544 20.3033 11.3021 20.5552 10.9985 20.7302C10.6948 20.9053 10.3505 20.9974 10 20.9974C9.6495 20.9974 9.30517 20.9053 9.00152 20.7302C8.69788 20.5552 8.44561 20.3033 8.27 20M17 7C17.7956 7 18.5587 6.68393 19.1213 6.12132C19.6839 5.55871 20 4.79565 20 4C20 3.20435 19.6839 2.44129 19.1213 1.87868C18.5587 1.31607 17.7956 1 17 1C16.2044 1 15.4413 1.31607 14.8787 1.87868C14.3161 2.44129 14 3.20435 14 4C14 4.79565 14.3161 5.55871 14.8787 6.12132C15.4413 6.68393 16.2044 7 17 7Z"
            stroke="#9FA8B5" stroke-linecap="round" stroke-linejoin="round" />
    </symbol>
    <symbol id="messages" viewBox="0 0 22 16">
        <path
            d="M1 13V3C1 2.46957 1.21071 1.96086 1.58579 1.58579C1.96086 1.21071 2.46957 1 3 1H19C19.5304 1 20.0391 1.21071 20.4142 1.58579C20.7893 1.96086 21 2.46957 21 3V13C21 13.5304 20.7893 14.0391 20.4142 14.4142C20.0391 14.7893 19.5304 15 19 15H3C2.46957 15 1.96086 14.7893 1.58579 14.4142C1.21071 14.0391 1 13.5304 1 13Z"
            stroke="#9FA8B5" />
    </symbol>
    <symbol id="more" viewBox="0 0 12 3">
        <path opacity="0.75"
            d="M2.03338 2.60938C1.73177 2.60938 1.47325 2.50331 1.25781 2.29119C1.04238 2.07907 0.936316 1.82055 0.939631 1.51562C0.936316 1.21733 1.04238 0.962121 1.25781 0.75C1.47325 0.537879 1.73177 0.431818 2.03338 0.431818C2.32505 0.431818 2.5786 0.537879 2.79403 0.75C3.01278 0.962121 3.12382 1.21733 3.12713 1.51562C3.12382 1.7178 3.07079 1.90175 2.96804 2.06747C2.86861 2.23319 2.73603 2.36577 2.57031 2.4652C2.40791 2.56132 2.22893 2.60938 2.03338 2.60938ZM6.09393 2.60938C5.79232 2.60938 5.5338 2.50331 5.31836 2.29119C5.10292 2.07907 4.99686 1.82055 5.00018 1.51562C4.99686 1.21733 5.10292 0.962121 5.31836 0.75C5.5338 0.537879 5.79232 0.431818 6.09393 0.431818C6.38559 0.431818 6.63915 0.537879 6.85458 0.75C7.07333 0.962121 7.18436 1.21733 7.18768 1.51562C7.18436 1.7178 7.13133 1.90175 7.02859 2.06747C6.92915 2.23319 6.79658 2.36577 6.63086 2.4652C6.46845 2.56132 6.28948 2.60938 6.09393 2.60938ZM10.1545 2.60938C9.85286 2.60938 9.59434 2.50331 9.37891 2.29119C9.16347 2.07907 9.05741 1.82055 9.06072 1.51562C9.05741 1.21733 9.16347 0.962121 9.37891 0.75C9.59434 0.537879 9.85286 0.431818 10.1545 0.431818C10.4461 0.431818 10.6997 0.537879 10.9151 0.75C11.1339 0.962121 11.2449 1.21733 11.2482 1.51562C11.2449 1.7178 11.1919 1.90175 11.0891 2.06747C10.9897 2.23319 10.8571 2.36577 10.6914 2.4652C10.529 2.56132 10.35 2.60938 10.1545 2.60938Z"
            fill="#9FA8B5" />
    </symbol>
</svg>